<?xml version="1.0" standalone="no"?>
<!DOCTYPE svg PUBLIC "-//W3C//DTD SVG 20010904//EN"
 "http://www.w3.org/TR/2001/REC-SVG-20010904/DTD/svg10.dtd">
<svg version="1.0" xmlns="http://www.w3.org/2000/svg"
 width="800.000000pt" height="1000.000000pt" viewBox="0 0 800.000000 1000.000000"
 preserveAspectRatio="xMidYMid meet">

<g transform="translate(0.000000,1000.000000) scale(0.100000,-0.100000)"
fill="#000000" stroke="none">
<path d="M3890 9078 c-11 -18 -27 -52 -36 -75 -14 -36 -21 -43 -43 -43 -17 0
-38 -11 -57 -31 -40 -41 -106 -69 -168 -69 -36 -1 -62 -8 -91 -25 -22 -14 -48
-25 -57 -25 -29 0 -129 -41 -149 -61 -11 -11 -19 -30 -19 -44 0 -22 4 -25 38
-25 59 0 150 -21 156 -36 3 -7 -7 -20 -22 -30 -28 -18 -58 -52 -79 -88 -21
-35 -15 -125 11 -181 28 -61 46 -78 63 -60 9 10 8 17 -8 31 -20 18 -27 7 -9
-14 7 -9 7 -9 -3 -2 -6 6 -13 21 -14 33 0 12 -8 40 -17 62 -21 54 -20 94 4
132 34 57 103 79 148 47 24 -16 62 -83 62 -108 0 -19 -47 -56 -71 -56 -10 0
-25 10 -33 22 -27 38 -32 -7 -8 -64 17 -41 18 -50 6 -55 -8 -3 -14 -9 -14 -14
0 -5 11 -3 25 3 25 11 34 28 15 28 -6 0 -10 6 -8 13 1 6 -4 23 -11 35 -7 13
-10 26 -7 29 12 12 35 -20 41 -58 9 -51 25 -51 18 0 -5 39 -2 45 52 90 14 11
16 11 13 -5 -2 -15 10 -21 72 -36 185 -44 391 -41 535 8 l70 23 23 -25 c24
-28 27 -46 12 -75 -7 -13 -7 -19 0 -19 5 0 10 7 10 15 0 8 4 15 9 15 4 0 7 11
6 25 -4 34 13 42 21 10 4 -18 1 -32 -11 -45 -10 -11 -13 -20 -7 -20 6 0 19 -3
29 -7 16 -6 16 -5 5 9 -11 14 -11 22 2 47 9 16 16 44 16 61 l0 30 -20 -20
c-23 -23 -30 -24 -65 -8 -31 14 -41 49 -25 88 6 16 9 34 5 39 -3 7 0 8 9 5 9
-3 16 -2 16 4 0 16 58 35 87 27 104 -25 131 -133 59 -242 -25 -39 -30 -52 -20
-61 15 -13 22 -5 51 53 50 99 37 184 -38 258 -27 26 -49 51 -49 56 0 10 108
31 163 31 47 0 47 0 41 28 -4 15 -12 33 -18 41 -14 18 -80 46 -131 55 -21 4
-51 16 -65 26 -31 22 -107 43 -128 35 -24 -9 -105 25 -132 57 -14 16 -41 33
-59 36 -28 6 -36 15 -55 59 -30 71 -52 93 -93 93 -27 0 -37 -6 -53 -32z m83
10 c16 -17 34 -54 50 -103 12 -34 19 -41 48 -46 68 -11 77 -35 28 -70 -36 -26
-89 -95 -89 -118 0 -8 28 16 63 53 l62 69 53 -8 c28 -4 52 -12 52 -18 0 -6 -3
-8 -6 -4 -8 8 -87 -66 -116 -109 -25 -37 -39 -42 -58 -19 -7 8 -22 15 -34 15
-15 0 -6 -9 29 -29 28 -16 57 -41 64 -55 8 -14 18 -26 23 -26 14 0 9 16 -12
35 -11 10 -20 23 -20 29 0 6 33 44 74 84 66 65 77 72 112 72 21 0 56 -6 77
-14 43 -15 42 -16 -43 -64 -77 -43 -189 -155 -169 -168 5 -3 9 0 9 7 0 7 3 10
6 7 3 -3 24 14 46 38 23 25 75 67 117 95 70 47 78 50 121 44 61 -8 132 -45
142 -73 7 -20 5 -22 -16 -16 -41 10 -149 -16 -215 -52 -99 -54 -219 -75 -426
-73 -93 0 -190 5 -215 9 -93 17 -167 39 -213 65 -58 33 -137 55 -196 55 l-44
0 19 21 c27 30 82 56 134 64 40 6 51 2 107 -32 35 -21 92 -66 127 -100 35 -35
70 -63 77 -63 15 0 6 11 -79 97 -34 34 -84 72 -111 85 -28 12 -50 28 -51 33 0
16 70 39 105 36 36 -4 89 -44 144 -110 l41 -49 -21 -26 c-12 -15 -19 -30 -15
-33 3 -3 13 8 23 26 12 20 26 31 40 31 12 0 25 5 29 12 5 7 3 8 -6 3 -9 -6
-11 -4 -6 4 5 7 15 10 25 6 13 -5 14 -4 3 7 -10 10 -16 10 -32 0 -18 -11 -28
-5 -95 65 -69 72 -73 78 -52 85 58 16 77 9 133 -49 30 -31 54 -64 54 -72 0
-11 3 -12 11 -4 15 15 -2 44 -59 105 -25 27 -54 48 -65 48 -18 0 -15 4 13 25
19 14 46 25 60 25 23 0 29 6 39 42 19 63 58 118 84 118 4 0 14 -6 20 -12z
m-447 -463 c18 -14 37 -25 43 -25 6 0 11 -5 11 -11 0 -5 4 -7 10 -4 5 3 26 1
47 -4 91 -25 282 -35 445 -22 88 7 171 16 184 21 31 12 37 -1 19 -36 -8 -16
-15 -46 -15 -67 0 -43 -8 -48 -106 -67 -174 -33 -307 -31 -462 8 l-66 17 -11
50 c-13 58 -34 102 -35 72 0 -13 -6 -10 -28 15 -22 24 -38 32 -65 32 -21 1
-37 4 -37 9 0 4 5 7 11 7 6 0 9 7 5 15 -8 22 13 18 50 -10z m894 6 c14 -28 12
-36 -5 -21 -10 9 -15 9 -15 1 0 -6 -3 -10 -7 -10 -22 4 -43 -3 -58 -17 -11
-11 -20 -13 -26 -7 -7 7 5 20 38 41 58 37 60 37 73 13z m-20 -231 c0 -5 -4
-10 -10 -10 -5 0 -10 5 -10 10 0 6 5 10 10 10 6 0 10 -4 10 -10z m80 -90 c-6
-11 -13 -20 -16 -20 -2 0 0 9 6 20 6 11 13 20 16 20 2 0 0 -9 -6 -20z"/>
<path d="M3940 8910 c0 -111 4 -170 10 -170 7 0 10 58 10 170 -1 95 -6 170
-11 170 -5 0 -9 -74 -9 -170z"/>
<path d="M3890 8730 c0 -13 11 -13 30 0 12 8 11 10 -7 10 -13 0 -23 -4 -23
-10z"/>
<path d="M3970 8730 c0 -5 4 -10 9 -10 6 0 13 5 16 10 3 6 -1 10 -9 10 -9 0
-16 -4 -16 -10z"/>
<path d="M3901 8644 c-19 -8 -39 -22 -46 -31 -8 -10 -17 -13 -26 -8 -12 7 -12
6 0 -9 13 -15 15 -16 23 -2 25 45 118 60 162 25 18 -14 26 -16 26 -7 -1 15
-62 48 -88 48 -9 -1 -32 -7 -51 -16z"/>
<path d="M4010 8656 c0 -2 7 -6 15 -10 8 -3 15 -1 15 4 0 6 -7 10 -15 10 -8 0
-15 -2 -15 -4z"/>
<path d="M4045 8590 c-3 -5 1 -10 10 -10 9 0 13 5 10 10 -3 6 -8 10 -10 10 -2
0 -7 -4 -10 -10z"/>
<path d="M3690 8490 c0 -13 7 -20 20 -20 13 0 20 7 20 20 0 13 -7 20 -20 20
-13 0 -20 -7 -20 -20z"/>
<path d="M4170 8490 c0 -15 5 -20 18 -18 9 2 17 10 17 18 0 8 -8 16 -17 18
-13 2 -18 -3 -18 -18z"/>
<path d="M3791 8491 c-8 -5 -11 -16 -8 -25 7 -18 16 -20 37 -6 13 8 13 11 0
24 -10 10 -20 12 -29 7z"/>
<path d="M4073 8484 c-8 -21 13 -42 28 -27 13 13 5 43 -11 43 -6 0 -13 -7 -17
-16z"/>
<path d="M3882 8463 c5 -26 38 -29 38 -4 0 15 -6 21 -21 21 -14 0 -19 -5 -17
-17z"/>
<path d="M3975 8470 c-8 -14 3 -30 21 -30 8 0 14 9 14 20 0 21 -24 28 -35 10z"/>
<path d="M4230 8360 c-40 -13 -45 -18 -45 -45 0 -25 -4 -30 -23 -27 -21 2 -22
1 -8 -14 14 -13 18 -13 30 -1 8 8 16 27 18 42 3 32 28 47 29 18 0 -15 2 -14 9
5 14 33 32 27 28 -10 -2 -24 -8 -33 -20 -32 -10 1 -18 -3 -18 -8 0 -5 10 -8
23 -7 12 2 27 0 32 -3 6 -4 17 -3 25 3 12 7 10 9 -8 9 -21 0 -23 3 -17 30 11
48 -2 58 -55 40z"/>
<path d="M3611 8344 c0 -28 1 -28 10 -6 10 25 29 21 29 -6 1 -15 2 -15 11 1
13 22 12 23 -24 32 -25 7 -27 5 -26 -21z"/>
<path d="M3688 8320 c5 -34 17 -45 55 -52 20 -4 25 -2 18 5 -6 6 -11 24 -11
39 0 15 -5 28 -11 28 -7 0 -9 -11 -5 -30 4 -22 2 -30 -8 -30 -15 0 -26 21 -26
51 0 10 -4 19 -8 19 -5 0 -7 -13 -4 -30z"/>
<path d="M4100 8312 c0 -20 -7 -32 -22 -40 -22 -10 -22 -11 -2 -11 13 -1 25 9
32 24 15 32 15 55 2 55 -5 0 -10 -13 -10 -28z"/>
<path d="M4147 8320 c3 -11 7 -20 9 -20 2 0 4 9 4 20 0 11 -4 20 -9 20 -5 0
-7 -9 -4 -20z"/>
<path d="M3782 8291 c7 -29 14 -38 25 -34 13 5 13 7 -1 15 -9 5 -16 20 -16 33
0 14 -4 25 -9 25 -5 0 -5 -17 1 -39z"/>
<path d="M3820 8318 c0 -7 5 -20 10 -28 8 -12 10 -9 10 13 0 15 -4 27 -10 27
-5 0 -10 -6 -10 -12z"/>
<path d="M3870 8311 c0 -10 9 -29 19 -42 25 -31 44 -15 38 32 l-4 34 -1 -38
c-2 -47 -25 -46 -30 1 -3 34 -22 45 -22 13z"/>
<path d="M3960 8311 c0 -25 6 -27 13 -6 4 8 2 17 -3 20 -6 4 -10 -3 -10 -14z"/>
<path d="M4000 8300 c0 -16 -4 -30 -10 -30 -5 0 -10 -4 -10 -10 0 -19 17 -10
28 15 15 32 15 55 2 55 -5 0 -10 -13 -10 -30z"/>
<path d="M4050 8307 c0 -13 -6 -29 -12 -37 -7 -8 -3 -6 10 4 22 19 30 56 12
56 -5 0 -10 -10 -10 -23z"/>
<path d="M3614 8301 c-5 -5 -38 -14 -73 -20 -90 -17 -120 -32 -51 -24 30 3 60
10 67 15 7 5 17 7 23 3 6 -4 17 -2 24 4 7 6 20 9 29 5 8 -3 18 1 23 8 4 7 4
10 -1 6 -4 -4 -13 -3 -20 2 -6 5 -16 6 -21 1z"/>
<path d="M3666 8281 c-3 -5 1 -11 9 -15 8 -3 15 -1 15 4 0 13 -18 22 -24 11z"/>
<path d="M4206 8273 c-6 -14 -5 -15 5 -6 7 7 10 15 7 18 -3 3 -9 -2 -12 -12z"/>
<path d="M3950 8270 c-8 -5 -12 -11 -9 -14 2 -3 11 -1 19 4 8 5 12 11 9 14 -2
3 -11 1 -19 -4z"/>
<path d="M4120 8270 c0 -5 5 -10 11 -10 5 0 7 5 4 10 -3 6 -8 10 -11 10 -2 0
-4 -4 -4 -10z"/>
<path d="M4358 8273 c7 -3 16 -2 19 1 4 3 -2 6 -13 5 -11 0 -14 -3 -6 -6z"/>
<path d="M4260 8266 c0 -2 7 -7 16 -10 8 -3 12 -2 9 4 -6 10 -25 14 -25 6z"/>
<path d="M4400 8260 c8 -5 20 -10 25 -10 6 0 3 5 -5 10 -8 5 -19 10 -25 10 -5
0 -3 -5 5 -10z"/>
<path d="M4480 8252 c0 -12 53 -32 84 -32 12 0 34 -7 50 -15 16 -8 34 -14 40
-13 6 1 21 -3 33 -10 12 -7 29 -9 37 -6 9 3 16 1 16 -5 0 -7 6 -11 13 -9 27 6
347 -135 347 -154 0 -5 5 -6 11 -3 11 7 78 -31 217 -124 46 -31 91 -61 100
-66 30 -18 96 -69 150 -114 38 -33 49 -47 40 -53 -9 -6 -6 -7 8 -4 15 5 29 -3
51 -26 17 -18 39 -40 49 -49 52 -44 223 -226 218 -232 -3 -3 -1 -14 5 -24 8
-14 11 -14 11 -3 1 21 66 -54 161 -187 50 -70 78 -117 73 -125 -4 -7 -4 -10 1
-6 9 9 55 -49 55 -69 0 -7 5 -13 10 -13 6 0 10 -5 10 -10 0 -6 5 -16 10 -23 6
-7 26 -37 45 -67 25 -40 31 -58 23 -68 -8 -9 -7 -11 3 -7 10 4 29 -23 63 -92
26 -54 47 -102 46 -107 -1 -5 2 -12 7 -15 11 -8 73 -143 73 -160 0 -6 11 -39
25 -72 14 -33 23 -65 19 -71 -5 -7 -2 -8 6 -3 10 6 11 1 6 -21 -5 -21 -4 -25
4 -14 8 12 10 12 10 -5 0 -12 4 -25 8 -30 9 -12 24 -56 47 -147 10 -38 22 -68
26 -68 12 0 15 -15 -39 160 -178 567 -469 1051 -868 1441 -130 127 -162 155
-274 241 -284 216 -636 390 -940 463 -30 8 -63 17 -72 20 -10 4 -18 3 -18 -3z"/>
<path d="M3355 8243 c-187 -41 -530 -180 -684 -277 -271 -171 -397 -271 -591
-465 -252 -253 -445 -526 -618 -871 -94 -187 -182 -407 -233 -585 -17 -60 -33
-112 -35 -114 -2 -2 -41 -3 -87 -2 -124 3 -224 -27 -273 -81 -43 -47 -58 -90
-62 -183 -3 -77 1 -106 26 -200 27 -98 50 -209 67 -316 5 -36 29 -68 41 -56 9
8 -6 68 -16 62 -8 -5 -20 29 -19 55 0 10 3 8 9 -5 8 -18 9 -18 9 5 1 14 -6 35
-14 48 -14 19 -14 24 0 51 32 62 104 70 161 18 l36 -33 -11 -124 c-26 -302
-22 -853 7 -882 10 -10 10 -6 -2 167 -13 196 -6 575 14 731 12 92 3 122 -49
162 -57 43 -102 44 -141 2 -34 -37 -45 -27 -55 50 -4 30 -11 60 -16 66 -8 10
-39 100 -39 114 0 3 9 -9 20 -27 10 -18 30 -39 44 -49 14 -9 24 -19 22 -23 -4
-7 9 -9 69 -14 17 -1 36 -6 43 -10 7 -5 12 -4 12 2 0 6 7 11 15 11 8 0 37 21
65 48 46 45 49 50 46 94 -4 52 -37 114 -67 123 -10 4 -17 11 -14 16 3 5 -1 6
-9 3 -9 -3 -16 -1 -16 4 0 30 23 63 57 81 21 11 31 20 23 21 -31 0 -78 -39
-90 -74 -12 -36 -6 -61 11 -50 5 3 28 -12 49 -34 35 -35 40 -45 40 -85 0 -74
-67 -137 -145 -137 -45 0 -106 31 -135 67 -19 24 -21 36 -16 86 14 137 132
259 252 259 42 0 44 1 27 15 -16 13 -12 14 43 9 77 -7 83 0 113 114 12 46 27
88 34 92 6 4 9 10 5 13 -14 15 127 369 144 359 4 -3 5 1 2 9 -4 12 9 43 46
107 4 8 14 30 20 48 7 17 16 32 21 32 5 0 9 6 9 14 0 12 30 72 76 154 11 19
25 30 33 27 9 -4 11 0 7 11 -8 21 13 61 24 45 5 -9 9 -8 13 4 4 9 3 13 -3 10
-19 -12 -10 6 47 88 86 125 95 137 106 130 6 -3 7 -1 3 5 -3 6 0 16 7 24 7 7
28 33 46 58 19 25 47 59 62 75 15 17 42 46 59 65 18 19 29 27 26 17 -3 -11 -2
-16 5 -12 5 4 7 15 4 26 -6 18 9 28 18 12 2 -5 2 -3 1 4 -4 15 20 35 31 25 5
-4 5 -2 2 4 -3 6 6 24 21 40 33 35 169 156 188 167 8 4 25 19 39 33 14 14 30
22 37 18 7 -4 8 -3 4 4 -4 7 -3 12 1 12 5 0 19 10 33 23 41 38 78 59 91 51 7
-4 9 -3 6 3 -9 15 12 31 158 117 74 44 136 74 144 71 9 -3 12 -3 9 1 -4 3 7
14 25 23 18 9 41 22 52 28 11 7 52 24 90 38 39 14 86 33 105 42 19 9 38 16 43
15 4 -1 22 4 40 11 17 8 38 12 46 9 8 -2 11 0 8 5 -3 5 31 17 76 28 86 19 129
35 92 34 -11 -1 -29 -3 -40 -6z m-2400 -2358 c-27 -13 -46 -24 -41 -24 5 -1
-2 -10 -16 -20 -38 -31 -100 -126 -108 -168 l-8 -38 -1 37 c-1 49 33 136 67
168 31 30 109 69 137 69 12 -1 0 -10 -30 -24z"/>
<path d="M2070 7420 c0 -5 5 -10 11 -10 5 0 7 5 4 10 -3 6 -8 10 -11 10 -2 0
-4 -4 -4 -10z"/>
<path d="M5660 7356 c0 -11 30 -39 36 -34 2 3 -5 13 -16 23 -11 10 -20 15 -20
11z"/>
<path d="M5770 7239 c0 -5 5 -7 10 -4 6 3 10 8 10 11 0 2 -4 4 -10 4 -5 0 -10
-5 -10 -11z"/>
<path d="M6016 7227 c3 -10 9 -15 12 -12 3 3 0 11 -7 18 -10 9 -11 8 -5 -6z"/>
<path d="M1550 6736 c0 -2 8 -10 18 -17 15 -13 16 -12 3 4 -13 16 -21 21 -21
13z"/>
<path d="M1611 6364 c0 -11 3 -14 6 -6 3 7 2 16 -1 19 -3 4 -6 -2 -5 -13z"/>
<path d="M1540 6200 c-6 -11 -7 -20 -2 -20 6 0 12 9 15 20 3 11 3 20 1 20 -2
0 -8 -9 -14 -20z"/>
<path d="M1513 6115 c-3 -9 -3 -18 -1 -21 3 -3 8 4 11 16 6 23 -1 27 -10 5z"/>
<path d="M6710 5922 c0 -5 28 -7 63 -6 56 3 60 1 43 -12 -18 -13 -15 -14 32
-14 69 0 118 -26 176 -92 68 -78 95 -183 62 -246 -17 -34 -95 -74 -141 -74
-37 0 -87 26 -124 66 -20 21 -23 32 -19 76 6 57 26 86 76 107 30 12 33 17 27
40 -10 41 -42 80 -71 87 -15 4 -29 5 -31 2 -3 -3 6 -8 21 -12 28 -7 66 -52 66
-79 0 -12 -5 -15 -20 -10 -15 5 -18 3 -14 -9 4 -10 1 -16 -8 -16 -8 0 -23 -16
-34 -35 -10 -19 -21 -35 -25 -35 -3 0 -5 -26 -5 -59 1 -39 5 -57 12 -54 6 2
14 -3 17 -11 10 -27 98 -76 134 -76 36 0 101 29 122 54 21 25 34 19 26 -11 -4
-16 -8 -35 -9 -43 -1 -9 -5 -20 -8 -25 -3 -6 -9 -30 -13 -55 -4 -25 -12 -48
-17 -51 -5 -3 -23 7 -40 23 -46 43 -98 37 -154 -17 l-42 -40 13 -107 c27 -228
27 -798 0 -860 -4 -11 -3 -18 4 -18 6 0 14 12 18 28 13 46 8 726 -6 845 l-13
108 31 30 c17 16 43 34 56 39 43 16 115 -23 115 -62 0 -11 4 -17 9 -14 5 4 7
-3 4 -14 -5 -19 -6 -19 -23 2 -12 16 -22 19 -36 13 -17 -8 -15 -9 9 -13 27 -3
29 -5 22 -40 -4 -20 -8 -37 -8 -38 -1 0 -13 -5 -27 -11 l-25 -12 23 -7 c17 -5
22 -14 22 -38 0 -26 -6 -34 -27 -43 l-28 -11 27 -1 c21 -1 29 5 34 24 5 21 8
23 21 10 18 -18 23 -18 47 0 26 19 126 20 151 1 18 -13 15 -14 -26 -9 -40 5
-48 2 -78 -26 -18 -17 -37 -29 -41 -26 -4 2 -10 -13 -14 -34 -3 -22 -10 -41
-14 -43 -5 -1 -6 -25 -2 -53 7 -48 7 -48 9 -11 2 64 22 115 58 146 46 40 117
42 157 5 36 -34 56 -84 56 -143 0 -60 -30 -96 -87 -105 -54 -9 -86 10 -97 58
-15 71 -16 72 -32 51 -8 -11 -14 -29 -13 -40 0 -20 1 -20 9 2 12 29 15 28 16
-9 2 -48 41 -81 98 -81 26 0 53 6 61 12 8 7 15 8 15 3 0 -11 -53 -63 -63 -63
-5 0 -17 -9 -28 -19 -16 -14 -23 -39 -29 -102 -28 -257 -106 -808 -117 -819
-3 -3 -2 18 2 45 5 38 4 47 -5 39 -6 -6 -20 -68 -31 -138 -111 -742 -285
-1414 -453 -1756 -123 -251 -251 -364 -374 -331 -45 12 -149 82 -159 108 -3 7
4 25 15 40 32 46 46 103 46 183 -1 94 -29 168 -87 228 -44 46 -111 86 -130 79
-7 -3 0 -8 15 -12 15 -4 29 -13 32 -21 3 -8 10 -14 16 -14 16 0 40 -26 32 -34
-3 -4 2 -4 12 0 12 5 17 2 14 -7 -2 -8 1 -15 6 -16 14 -2 46 -57 41 -71 -3 -7
-1 -11 4 -7 16 9 34 -68 33 -140 -1 -57 -7 -81 -32 -129 -16 -32 -30 -66 -30
-75 0 -21 86 -95 134 -115 80 -34 168 -14 241 55 21 21 43 35 47 32 5 -2 -9
-22 -30 -43 -47 -45 -136 -81 -190 -76 -52 4 -138 46 -186 90 -21 20 -41 36
-45 36 -3 0 -22 -11 -42 -24 -46 -31 -105 -56 -135 -56 -13 0 -24 -5 -24 -11
0 -11 9 -10 92 12 20 5 50 21 66 34 17 14 34 25 40 25 5 0 27 -16 48 -35 90
-83 207 -107 301 -63 135 63 279 297 391 633 79 236 175 599 221 835 119 617
182 1028 236 1538 6 54 11 64 34 76 71 38 112 115 112 211 0 88 -37 157 -103
191 -37 19 -147 18 -175 -1 -12 -8 -24 -11 -27 -7 -10 17 29 225 66 357 34
120 40 179 23 257 -22 109 -70 159 -184 192 -57 17 -231 23 -231 8z m195 -12
c3 -5 2 -10 -4 -10 -5 0 -13 5 -16 10 -3 6 -2 10 4 10 5 0 13 -4 16 -10z m89
-30 c26 -11 46 -26 46 -35 0 -8 5 -14 12 -12 21 4 57 -76 62 -139 3 -32 3 -48
0 -34 -15 73 -87 171 -164 222 -34 23 -11 22 44 -2z m33 -710 c-1 -11 -5 -20
-9 -20 -11 0 -20 19 -13 30 11 17 24 11 22 -10z m38 -1406 c-6 -3 -10 -21 -9
-42 l3 -37 -7 35 c-10 46 -4 76 12 59 7 -8 8 -13 1 -15z m-35 -200 c-12 -60
-22 -118 -24 -129 -2 -19 -19 -114 -21 -125 -1 -3 -5 -26 -9 -52 -5 -26 -12
-46 -15 -43 -7 4 19 173 55 355 9 47 17 93 18 102 0 10 4 14 9 9 4 -4 -2 -57
-13 -117z m-90 -476 c-12 -45 -23 -97 -24 -114 -1 -16 -6 -35 -10 -42 -4 -6
-9 -28 -12 -48 -5 -43 -83 -354 -92 -369 -4 -5 -7 -14 -9 -20 -27 -126 -164
-497 -177 -477 -4 7 -2 21 4 32 28 52 88 215 83 223 -3 6 -1 7 4 4 6 -4 13 5
16 21 2 15 19 74 36 132 18 58 33 110 34 115 2 6 6 16 11 23 4 7 5 16 2 19 -3
3 -2 11 4 18 5 6 23 74 40 151 16 76 34 155 39 174 5 19 19 82 31 140 26 124
31 142 37 118 2 -9 -5 -54 -17 -100z m-338 -1127 c-9 -22 -19 -38 -21 -35 -2
2 -17 -22 -32 -54 -30 -60 -84 -130 -94 -121 -3 3 9 23 26 45 28 35 112 178
115 197 1 4 2 10 3 13 0 3 5 3 10 -1 5 -3 2 -22 -7 -44z"/>
<path d="M1441 5884 c0 -11 3 -14 6 -6 3 7 2 16 -1 19 -3 4 -6 -2 -5 -13z"/>
<path d="M1110 5875 c0 -8 4 -15 10 -15 5 0 7 7 4 15 -4 8 -8 15 -10 15 -2 0
-4 -7 -4 -15z"/>
<path d="M6768 5883 c7 -3 16 -2 19 1 4 3 -2 6 -13 5 -11 0 -14 -3 -6 -6z"/>
<path d="M1401 5734 c0 -11 3 -14 6 -6 3 7 2 16 -1 19 -3 4 -6 -2 -5 -13z"/>
<path d="M1372 5590 c0 -14 2 -19 5 -12 2 6 2 18 0 25 -3 6 -5 1 -5 -13z"/>
<path d="M1341 5385 c-1 -11 -4 -31 -6 -45 l-6 -25 11 25 c6 13 9 33 7 45 -4
19 -4 19 -6 0z"/>
<path d="M870 5280 c0 -5 14 -10 31 -10 17 0 28 4 24 10 -3 6 -17 10 -31 10
-13 0 -24 -4 -24 -10z"/>
<path d="M910 5180 c0 -13 18 -22 24 -11 3 5 -1 11 -9 15 -8 3 -15 1 -15 -4z"/>
<path d="M1321 5154 c0 -11 3 -14 6 -6 3 7 2 16 -1 19 -3 4 -6 -2 -5 -13z"/>
<path d="M685 5126 c-44 -16 -89 -63 -111 -113 -20 -46 -17 -149 5 -198 17
-39 81 -105 101 -105 17 0 12 7 -42 59 -43 41 -47 48 -23 36 35 -17 88 -19
117 -4 11 6 28 29 38 50 13 31 19 36 24 23 4 -9 9 -15 12 -12 10 10 -16 58
-31 58 -9 0 -14 -4 -11 -8 10 -16 -15 -81 -37 -97 -33 -23 -115 -4 -144 34
-17 22 -16 104 1 144 7 18 24 43 37 57 13 13 23 27 22 30 -1 3 25 3 57 0 94
-9 139 -67 141 -181 1 -41 1 -42 11 -17 14 39 -6 127 -38 161 -38 41 -82 60
-123 54 -33 -6 -35 -5 -17 8 31 23 111 23 159 0 15 -7 27 -10 27 -6 0 12 -49
31 -94 36 -23 3 -58 -1 -81 -9z"/>
<path d="M816 5083 c-6 -14 -5 -15 5 -6 7 7 10 15 7 18 -3 3 -9 -2 -12 -12z"/>
<path d="M915 5080 c-4 -6 3 -10 14 -10 25 0 27 6 6 13 -8 4 -17 2 -20 -3z"/>
<path d="M1313 5020 c0 -36 2 -50 4 -32 2 17 2 47 0 65 -2 17 -4 3 -4 -33z"/>
<path d="M7020 5061 c0 -6 4 -13 10 -16 6 -3 7 1 4 9 -7 18 -14 21 -14 7z"/>
<path d="M890 5028 c0 -21 5 -38 10 -38 6 0 10 -7 10 -15 0 -8 -4 -15 -9 -15
-7 0 -8 -73 -1 -90 1 -3 1 -9 0 -15 -18 -76 -18 -80 -3 -97 17 -19 69 -26 57
-7 -3 6 -15 9 -25 6 -22 -6 -25 3 -21 54 4 34 7 39 29 39 13 0 21 4 18 10 -3
6 -15 10 -26 10 -18 0 -20 6 -17 47 2 36 7 47 21 49 29 4 30 11 2 18 -17 4
-25 13 -25 29 0 12 -5 29 -10 37 -7 11 -10 5 -10 -22z"/>
<path d="M6997 5054 c-10 -10 -9 -64 2 -64 12 0 21 41 12 57 -4 7 -10 10 -14
7z"/>
<path d="M6955 4980 c-3 -5 3 -10 15 -10 12 0 18 5 15 10 -3 6 -10 10 -15 10
-5 0 -12 -4 -15 -10z"/>
<path d="M6990 4915 c0 -38 -3 -45 -19 -45 -11 0 -23 -4 -26 -10 -3 -6 5 -10
18 -10 14 0 28 8 32 18 10 25 13 92 3 92 -4 0 -8 -20 -8 -45z"/>
<path d="M1312 4930 c0 -14 2 -19 5 -12 2 6 2 18 0 25 -3 6 -5 1 -5 -13z"/>
<path d="M1312 4860 c0 -14 2 -19 5 -12 2 6 2 18 0 25 -3 6 -5 1 -5 -13z"/>
<path d="M7001 4841 c-10 -6 -12 -19 -7 -45 6 -34 5 -36 -18 -36 -14 0 -28 -4
-31 -10 -4 -6 6 -10 23 -10 33 0 42 14 42 65 0 18 6 36 13 38 6 3 8 6 2 6 -5
0 -16 -3 -24 -8z"/>
<path d="M1313 4710 c0 -41 2 -58 4 -37 2 20 2 54 0 75 -2 20 -4 3 -4 -38z"/>
<path d="M840 4740 c-14 -11 -35 -19 -47 -18 -11 2 -30 -5 -40 -14 -16 -15
-18 -26 -12 -75 4 -32 12 -110 19 -173 12 -121 17 -146 26 -138 2 3 -4 83 -16
178 -24 208 -24 200 -1 200 32 0 76 20 89 40 15 25 13 25 -18 0z"/>
<path d="M7045 4734 c34 -26 94 -39 108 -25 10 11 8 12 -8 7 -12 -3 -37 2 -60
14 -46 23 -69 26 -40 4z"/>
<path d="M880 4717 c0 -52 -25 -240 -40 -304 -10 -43 -16 -82 -13 -87 9 -14
31 35 25 56 -2 10 1 18 7 18 6 0 11 20 12 48 0 26 6 72 12 102 10 44 16 55 32
56 36 2 40 4 23 15 -12 7 -24 6 -37 -1 -18 -9 -19 -8 -10 22 12 43 12 88 -1
88 -5 0 -10 -6 -10 -13z"/>
<path d="M7003 4680 c4 -29 2 -51 -3 -51 -6 -1 -14 -3 -20 -4 -5 -1 -15 -3
-21 -4 -5 0 -7 -6 -4 -12 4 -6 13 -8 19 -6 22 9 36 -8 45 -56 8 -45 7 -47 -15
-47 -12 0 -25 -4 -28 -9 -9 -14 23 -22 43 -12 15 8 17 6 13 -19 -2 -16 3 -43
11 -59 14 -28 7 -45 -8 -21 -3 6 -15 10 -26 10 -10 0 -19 -4 -19 -10 0 -5 11
-10 24 -10 16 0 31 -11 46 -32 20 -30 21 -31 16 -8 -24 112 -46 264 -46 311 0
63 -7 89 -22 89 -7 0 -9 -18 -5 -50z"/>
<path d="M704 4683 c3 -16 10 -71 16 -123 6 -52 18 -142 26 -200 8 -58 19
-160 24 -226 5 -67 14 -132 18 -145 5 -13 13 -51 17 -84 12 -99 122 -708 160
-885 37 -176 79 -349 100 -415 7 -22 30 -101 50 -175 21 -74 44 -148 51 -165
7 -16 30 -75 50 -130 40 -112 129 -286 180 -356 69 -95 171 -168 234 -169 35
0 13 15 -45 30 -38 11 -63 27 -105 69 -79 80 -99 107 -90 121 6 9 16 0 34 -29
63 -99 160 -165 242 -163 40 0 114 31 142 58 7 8 17 14 21 14 4 0 18 14 30 31
l24 32 -28 53 c-15 29 -30 72 -33 96 -10 73 -8 158 4 166 6 4 15 18 19 32 12
39 36 71 48 63 6 -3 7 -1 3 6 -8 12 3 26 52 60 18 13 31 26 28 29 -12 11 -87
-53 -119 -102 -46 -70 -57 -107 -57 -195 0 -60 5 -87 26 -131 14 -30 30 -58
37 -62 16 -10 -43 -70 -103 -106 -61 -36 -138 -36 -195 0 -104 66 -198 208
-300 453 -37 90 -43 106 -108 310 -90 283 -254 1060 -292 1379 -5 47 -11 59
-27 64 -16 4 -19 11 -14 33 3 16 1 29 -6 31 -6 2 -11 18 -11 36 0 17 -4 29 -9
26 -4 -3 -8 26 -8 64 0 38 -5 93 -10 123 -11 56 -40 296 -38 308 1 6 -8 94
-18 164 -3 20 -10 37 -15 37 -5 0 -7 -12 -5 -27z m133 -825 c-3 -8 -6 -5 -6 6
-1 11 2 17 5 13 3 -3 4 -12 1 -19z m43 -228 c12 -80 29 -174 37 -210 9 -36 18
-83 20 -105 2 -22 8 -53 13 -70 5 -16 12 -48 15 -70 2 -22 9 -56 15 -75 12
-42 12 -40 2 -40 -4 0 -16 37 -25 83 -10 45 -27 120 -37 167 -10 47 -26 135
-35 195 -8 61 -22 151 -30 200 -15 97 -18 150 -5 100 4 -16 17 -95 30 -175z
m110 -583 c0 -19 26 -137 41 -191 12 -38 22 -80 24 -95 2 -14 4 -26 5 -26 1 0
3 -7 6 -15 64 -243 127 -451 160 -525 7 -17 19 -52 25 -77 7 -26 16 -45 21
-42 4 3 8 1 8 -5 0 -17 80 -184 98 -204 10 -12 12 -21 5 -28 -6 -6 -31 34 -75
123 -36 73 -69 144 -73 158 -3 14 -10 34 -15 45 -4 11 -23 65 -41 120 -18 55
-38 114 -45 130 -13 32 -92 323 -99 365 -3 14 -11 52 -19 85 -33 135 -42 185
-34 185 4 0 8 -1 8 -3z"/>
<path d="M7155 4668 c-15 -70 -42 -345 -34 -358 6 -11 9 -7 10 15 3 57 13 138
28 220 6 33 10 69 9 80 -1 11 2 30 6 43 4 13 3 22 -3 22 -6 0 -13 -10 -16 -22z"/>
<path d="M1317 4570 c3 -36 7 -67 9 -69 8 -9 2 95 -6 114 -4 12 -6 -7 -3 -45z"/>
<path d="M880 4485 c0 -8 9 -15 19 -15 26 0 35 16 15 24 -25 10 -34 7 -34 -9z"/>
<path d="M860 4380 c0 -5 11 -10 25 -10 14 0 25 5 25 10 0 6 -11 10 -25 10
-14 0 -25 -4 -25 -10z"/>
<path d="M1342 4360 c0 -19 2 -27 5 -17 2 9 2 25 0 35 -3 9 -5 1 -5 -18z"/>
<path d="M892 4339 c-18 -5 -30 -14 -26 -20 3 -6 10 -6 17 -1 38 30 94 16 150
-36 15 -14 27 -21 27 -15 0 14 -67 73 -83 73 -7 0 -21 2 -32 4 -11 3 -35 0
-53 -5z"/>
<path d="M6909 4330 c-34 -18 -59 -50 -39 -50 5 0 -4 -14 -19 -31 -28 -30 -58
-129 -40 -129 5 0 9 -7 9 -15 0 -9 19 -34 42 -55 40 -38 41 -41 27 -66 -18
-34 -54 -58 -74 -50 -9 3 -13 2 -10 -4 18 -30 84 8 106 62 10 25 10 33 1 36
-32 10 -70 55 -82 96 -10 37 -10 49 4 77 21 44 73 79 118 79 42 0 114 -48 128
-86 15 -38 -5 -193 -28 -224 -11 -14 -41 -38 -67 -55 -44 -27 -56 -30 -132
-30 -47 1 -76 -2 -66 -6 11 -4 1 -7 -25 -7 -53 0 -78 -20 -86 -72 -3 -22 -11
-40 -17 -40 -5 0 -7 -5 -4 -10 7 -12 -16 -96 -52 -190 -13 -36 -30 -81 -38
-100 -35 -92 -60 -152 -100 -235 -23 -49 -48 -105 -56 -122 -8 -18 -17 -33
-21 -33 -5 0 -8 -9 -8 -19 0 -11 -4 -22 -9 -26 -5 -3 -30 -42 -55 -88 -65
-119 -191 -302 -205 -299 -7 1 -11 -3 -8 -10 5 -17 -83 -129 -96 -121 -6 4 -8
0 -5 -8 4 -10 -20 -43 -63 -90 -38 -40 -69 -80 -69 -88 0 -15 11 -4 121 125
202 237 439 626 539 884 11 30 27 69 34 85 32 71 102 284 143 428 4 14 11 17
34 12 39 -9 182 -8 211 0 41 13 88 37 88 46 0 9 -32 0 -40 -11 -7 -9 -50 -23
-50 -16 0 3 17 14 38 25 21 11 44 26 51 35 7 8 20 12 29 9 14 -4 14 -3 3 5
-12 9 -13 13 -1 27 7 9 19 59 26 112 l14 95 -31 39 c-17 22 -40 44 -50 50 -11
5 -17 14 -13 20 3 6 -5 7 -23 3 -25 -7 -27 -6 -14 10 13 15 12 16 -13 6 -16
-6 -34 -7 -43 -1 -38 21 56 33 96 12 13 -7 21 -8 21 -2 0 9 -62 31 -85 31 -5
-1 -26 -10 -46 -20z m5 -29 c3 -5 -1 -11 -9 -15 -15 -6 -29 7 -18 18 9 9 21 8
27 -3z"/>
<path d="M928 4299 c-15 -4 -30 -4 -34 0 -4 3 -4 0 0 -6 4 -7 3 -13 -1 -13 -5
0 -15 6 -23 13 -12 10 -12 9 -2 -4 10 -14 7 -21 -22 -43 -44 -33 -52 -71 -35
-168 7 -40 12 -81 11 -91 0 -9 3 -15 9 -12 5 4 9 -1 9 -9 0 -16 46 -54 95 -80
17 -9 23 -16 15 -16 -9 0 -24 6 -35 13 -28 19 -55 28 -55 19 0 -5 17 -17 38
-27 28 -14 66 -20 157 -23 l120 -4 33 -121 c115 -422 329 -864 570 -1182 73
-95 183 -225 192 -225 4 0 11 -10 15 -22 4 -15 8 -18 12 -10 3 7 -17 38 -44
68 -26 31 -65 77 -85 102 -21 26 -44 54 -51 62 -36 39 -86 118 -79 125 4 5 1
5 -5 1 -8 -4 -13 -1 -13 8 0 9 -4 16 -9 16 -21 0 -196 302 -187 325 3 9 0 12
-8 9 -12 -5 -22 15 -112 214 -13 29 -24 55 -24 59 0 3 -11 29 -24 57 -32 70
-120 334 -141 426 -23 98 -36 113 -95 107 -25 -2 -37 -2 -27 0 36 9 6 20 -42
15 -58 -5 -115 11 -156 46 -48 40 -55 55 -69 156 -13 95 -13 96 11 131 49 73
136 87 192 33 41 -40 54 -73 46 -116 -7 -36 -59 -102 -82 -102 -10 0 -12 -6
-8 -22 17 -58 81 -106 106 -81 9 9 7 11 -8 7 -14 -4 -29 3 -47 23 -29 31 -35
53 -8 32 15 -13 16 -12 3 3 -7 10 -18 15 -23 11 -6 -3 -8 0 -6 8 3 8 12 13 21
13 9 -1 15 2 12 6 -3 4 3 14 12 21 24 20 43 73 43 117 0 31 -7 46 -35 73 -50
50 -59 56 -74 51 -8 -3 -11 0 -8 5 7 11 -8 12 -45 2z"/>
<path d="M7087 4284 c3 -7 9 -14 14 -14 14 0 10 17 -5 23 -10 4 -13 1 -9 -9z"/>
<path d="M1371 4150 c0 -14 6 -47 13 -75 18 -65 19 -38 2 40 -8 33 -14 49 -15
35z"/>
<path d="M1402 3995 c0 -16 2 -22 5 -12 2 9 2 23 0 30 -3 6 -5 -1 -5 -18z"/>
<path d="M1412 3945 c0 -11 3 -29 8 -40 11 -25 11 1 0 35 -6 20 -8 21 -8 5z"/>
<path d="M1470 3721 c0 -11 4 -22 9 -25 4 -3 6 6 3 19 -5 30 -12 33 -12 6z"/>
<path d="M1521 3574 c0 -11 3 -14 6 -6 3 7 2 16 -1 19 -3 4 -6 -2 -5 -13z"/>
<path d="M1550 3488 c0 -9 5 -20 10 -23 13 -8 13 5 0 25 -8 13 -10 13 -10 -2z"/>
<path d="M1601 3363 c11 -34 19 -42 19 -20 0 7 -7 22 -15 33 -13 17 -14 16 -4
-13z"/>
<path d="M1621 3315 c0 -5 6 -21 14 -35 8 -14 14 -20 14 -15 0 6 -6 21 -14 35
-8 14 -14 21 -14 15z"/>
<path d="M1685 3166 c0 -13 3 -22 7 -20 4 3 11 -4 17 -13 16 -28 13 -5 -4 27
-19 36 -20 37 -20 6z"/>
<path d="M1720 3096 c0 -9 4 -16 9 -16 5 0 14 -12 19 -27 6 -16 23 -41 37 -58
l27 -30 -18 30 c-10 17 -26 47 -36 67 -20 41 -38 57 -38 34z"/>
<path d="M1810 2950 c1 -17 28 -56 34 -49 3 3 -4 18 -14 34 -11 17 -20 23 -20
15z"/>
<path d="M1875 2855 c14 -22 28 -48 31 -57 4 -10 11 -18 16 -18 11 0 -17 49
-50 88 -20 24 -20 22 3 -13z"/>
<path d="M1946 2745 c21 -35 44 -60 44 -48 0 5 -14 24 -31 43 -30 33 -30 34
-13 5z"/>
<path d="M2001 2675 c-1 -16 119 -155 133 -155 5 0 -11 21 -35 48 -24 26 -56
63 -71 82 -15 19 -27 31 -27 25z"/>
<path d="M2135 2500 c3 -5 8 -10 11 -10 2 0 4 5 4 10 0 6 -5 10 -11 10 -5 0
-7 -4 -4 -10z"/>
<path d="M2160 2480 c0 -5 5 -10 11 -10 5 0 7 5 4 10 -3 6 -8 10 -11 10 -2 0
-4 -4 -4 -10z"/>
<path d="M2200 2446 c0 -11 30 -39 36 -34 2 3 -5 13 -16 23 -11 10 -20 15 -20
11z"/>
<path d="M2240 2391 c0 -5 9 -11 20 -14 24 -6 27 8 4 17 -21 8 -24 8 -24 -3z"/>
<path d="M2310 2362 c0 -24 250 -224 365 -292 55 -32 34 -13 -50 46 -38 27
-125 95 -192 152 -68 56 -123 99 -123 94z"/>
<path d="M2280 2340 c0 -5 5 -10 11 -10 5 0 7 5 4 10 -3 6 -8 10 -11 10 -2 0
-4 -4 -4 -10z"/>
<path d="M2117 2174 c-5 -6 -32 -12 -56 -13 -8 -1 -11 -4 -8 -8 4 -3 -3 -11
-15 -17 -11 -6 -35 -28 -52 -49 -26 -32 -30 -46 -29 -91 3 -112 77 -186 186
-186 50 0 59 4 102 42 72 65 85 115 52 203 -6 16 -19 37 -29 47 -10 10 -15 24
-12 32 4 9 -2 14 -18 14 -35 1 -92 13 -104 23 -6 5 -13 6 -17 3z m108 -55 c76
-52 94 -153 40 -225 -40 -52 -71 -68 -130 -68 -97 0 -172 79 -163 174 12 124
150 189 253 119z"/>
<path d="M5706 2158 c2 -4 -5 -9 -16 -13 -11 -3 -37 -27 -57 -52 -34 -41 -38
-52 -37 -100 1 -40 9 -65 30 -100 96 -154 324 -83 324 101 0 65 -33 113 -105
153 -29 16 -148 26 -139 11z m152 -33 c45 -27 66 -64 70 -125 3 -39 -1 -66
-12 -88 -58 -112 -221 -116 -283 -6 -66 115 21 254 150 240 26 -3 60 -12 75
-21z"/>
<path d="M2697 1999 c7 -7 15 -10 18 -7 3 3 -2 9 -12 12 -14 6 -15 5 -6 -5z"/>
<path d="M1941 1934 c0 -11 3 -14 6 -6 3 7 2 16 -1 19 -3 4 -6 -2 -5 -13z"/>
<path d="M5407 1929 c-10 -11 -22 -17 -27 -14 -6 3 -10 2 -10 -4 0 -11 -111
-86 -194 -130 -46 -24 -62 -29 -69 -19 -6 10 -8 9 -4 -3 5 -15 -30 -46 -40
-35 -4 3 -11 0 -17 -7 -24 -29 -293 -133 -446 -172 -92 -24 -145 -45 -114 -45
47 0 327 93 474 157 159 70 374 191 437 246 24 21 53 17 53 -8 0 -30 41 -102
83 -144 50 -51 98 -77 167 -92 l50 -11 0 -113 0 -112 -31 -7 c-17 -3 -47 -22
-66 -41 -34 -34 -35 -38 -31 -93 2 -31 12 -73 21 -92 16 -34 16 -36 -8 -84
-31 -60 -32 -114 -5 -216 24 -90 15 -162 -25 -200 -14 -13 -25 -30 -25 -38 0
-15 38 -14 179 7 38 5 68 4 99 -6 55 -16 112 -17 112 -2 0 7 -11 22 -24 34
-24 23 -46 80 -46 123 0 12 9 59 21 103 25 96 19 166 -16 207 l-22 26 23 50
c27 59 31 131 9 163 -19 27 -77 63 -101 63 -15 0 -16 -2 -5 -9 19 -12 -3 -24
-32 -16 -12 4 2 -8 31 -25 59 -35 87 -80 77 -128 -5 -23 -5 -24 5 -9 15 24 10
66 -12 96 -28 37 -23 67 6 38 38 -37 38 -120 1 -182 -18 -30 -18 -31 7 -70 14
-22 28 -56 31 -75 6 -37 -25 -190 -31 -155 -8 40 -35 85 -52 85 -48 0 -72
-100 -37 -153 22 -34 48 -34 68 -1 16 26 16 26 22 -35 4 -46 12 -71 33 -98 15
-20 23 -33 17 -30 -35 22 -201 25 -281 6 -60 -14 -75 -7 -44 21 42 40 53 130
26 221 -22 71 -20 160 3 202 20 36 33 48 45 41 4 -3 5 2 1 11 -4 12 -8 13 -13
5 -11 -18 -43 74 -35 102 5 18 4 20 -4 8 -8 -11 -10 -6 -8 25 2 47 48 99 96
108 22 5 31 12 31 26 0 26 17 36 23 14 3 -10 5 34 4 97 0 63 -2 104 -4 91 -5
-23 -5 -23 -24 8 -12 20 -27 31 -41 31 -31 1 -122 41 -150 66 -57 51 -112 142
-102 169 4 9 0 15 -9 15 -9 0 -20 7 -24 15 -7 13 -11 12 -26 -6z m363 -453
c-7 -7 -9 8 -6 54 5 84 9 88 13 16 3 -34 -1 -64 -7 -70z m82 -98 c-5 -5 -17
-6 -26 -2 -13 5 -14 9 -5 14 16 11 43 0 31 -12z m17 -459 c20 -57 -18 -141
-47 -106 -17 20 -24 81 -13 110 15 38 46 36 60 -4z"/>
<path d="M2443 1888 c-5 -7 -17 -32 -27 -55 -11 -24 -40 -60 -68 -83 -44 -38
-135 -80 -173 -80 -8 0 -15 -4 -15 -10 0 -13 7 -13 70 6 100 29 183 103 210
184 7 22 17 40 22 40 4 0 29 -15 55 -34 124 -87 403 -221 589 -282 104 -34
274 -76 288 -71 15 6 4 10 -149 48 -71 18 -132 36 -135 39 -3 4 -22 10 -42 14
-20 4 -38 10 -40 14 -2 4 -34 18 -73 31 -95 32 -363 165 -385 191 -9 10 -98
60 -108 60 -5 0 -14 -6 -19 -12z"/>
<path d="M5475 1890 c3 -5 8 -10 11 -10 2 0 4 5 4 10 0 6 -5 10 -11 10 -5 0
-7 -4 -4 -10z"/>
<path d="M5501 1874 c0 -11 3 -14 6 -6 3 7 2 16 -1 19 -3 4 -6 -2 -5 -13z"/>
<path d="M1879 1741 c-24 -42 -80 -80 -156 -106 -53 -19 -61 -24 -38 -24 41
-1 124 39 173 83 22 20 42 36 45 36 4 0 27 -13 53 -30 26 -16 71 -35 100 -41
l54 -12 0 -108 c0 -59 3 -115 6 -124 6 -15 4 -15 -13 -4 -17 10 -26 9 -53 -7
-76 -44 -98 -131 -52 -208 23 -39 28 -66 13 -66 -15 0 -41 -78 -41 -124 0 -23
7 -65 15 -92 29 -94 16 -196 -29 -233 -46 -38 18 -55 98 -26 22 8 44 11 50 7
6 -3 29 -7 51 -8 22 -1 70 -5 108 -9 54 -6 67 -5 67 6 0 8 -8 19 -19 26 -22
14 -51 93 -51 139 0 17 6 49 14 70 34 98 29 193 -13 238 l-20 22 24 49 c26 50
32 106 16 148 -12 32 -60 66 -103 73 -29 5 -27 3 17 -19 50 -25 85 -69 85
-107 0 -10 -9 -40 -21 -67 -32 -73 -41 -98 -33 -90 10 10 36 -31 28 -45 -4 -6
-3 -8 4 -4 15 9 32 -58 26 -98 -3 -17 -12 -55 -21 -84 -23 -80 -15 -168 21
-215 26 -34 27 -37 9 -37 -11 0 -33 4 -49 9 -43 14 -165 21 -184 11 -17 -9
-100 -20 -100 -13 0 2 11 19 24 36 23 31 42 89 37 115 -3 16 4 15 24 -4 41
-41 87 30 71 108 -15 76 -63 80 -94 10 l-16 -37 -13 55 c-17 71 -9 132 24 182
18 26 23 42 16 46 -6 4 -20 31 -31 60 -15 40 -18 60 -11 84 10 37 38 70 52 61
5 -3 7 -1 4 4 -4 6 3 13 16 17 31 8 37 7 37 -4 0 -5 -6 -10 -13 -10 -19 0 -76
-59 -83 -86 -7 -28 13 -94 29 -94 8 0 7 4 -1 12 -7 7 -12 30 -12 51 0 31 7 46
33 71 17 18 40 37 51 43 14 8 19 25 23 74 2 35 6 66 9 69 3 3 4 -14 3 -37 -2
-23 0 -45 4 -49 6 -6 10 58 10 161 0 43 -4 55 -18 55 -8 0 -23 4 -33 9 -9 5
-42 17 -72 26 -48 16 -115 55 -130 76 -3 4 -13 -5 -21 -20z m261 -151 c0 -5
-4 -10 -10 -10 -5 0 -10 5 -10 10 0 6 5 10 10 10 6 0 10 -4 10 -10z m-44 -661
c17 -35 13 -83 -11 -115 -13 -18 -15 -18 -31 -2 -33 32 -19 148 17 148 5 0 16
-14 25 -31z"/>
<path d="M5910 1720 c-9 -6 -10 -10 -3 -10 6 0 15 5 18 10 8 12 4 12 -15 0z"/>
<path d="M3910 1553 c-31 -12 -56 -73 -30 -73 6 0 10 11 10 24 0 13 10 30 23
39 23 17 22 19 -3 10z"/>
<path d="M3980 1553 c0 -6 5 -15 10 -18 13 -8 13 -65 0 -65 -5 0 -14 8 -19 18
-9 15 -10 15 -11 1 0 -9 7 -20 16 -23 9 -4 14 -9 10 -13 -3 -3 -15 2 -26 12
-13 12 -20 14 -20 5 0 -8 -8 -10 -24 -6 -14 3 -28 1 -32 -5 -4 -8 -9 -7 -14 2
-7 10 -11 10 -24 -1 -9 -7 -20 -9 -24 -5 -4 4 -1 10 6 12 6 3 12 18 12 33 0
17 7 33 18 39 9 6 12 11 6 11 -17 0 -44 -34 -44 -57 0 -11 -10 -27 -22 -35
-20 -13 -25 -13 -40 1 -20 19 -13 71 9 71 12 0 14 -8 10 -35 -3 -20 -2 -35 4
-35 6 0 9 17 7 38 -2 29 -7 37 -23 37 -14 0 -22 -10 -28 -37 -5 -21 -13 -38
-18 -38 -5 0 -9 -6 -9 -13 0 -15 -78 -38 -86 -26 -3 5 3 9 13 9 17 1 17 1 0
15 -24 17 -19 61 6 59 21 -2 23 12 1 20 -10 4 -19 -3 -27 -22 -7 -16 -18 -27
-25 -24 -26 8 -51 -27 -48 -69 2 -21 -1 -39 -5 -39 -5 0 -9 8 -10 18 0 13 -2
14 -6 2 -3 -8 -11 -18 -17 -22 -6 -4 -7 -10 -3 -15 5 -4 12 -1 17 7 6 8 10 10
10 5 0 -6 13 -16 30 -23 37 -17 44 -40 26 -83 -31 -74 -85 -100 -145 -69 -47
24 -71 63 -71 117 0 44 37 129 69 157 22 20 22 20 43 -1 20 -21 20 -23 4 -62
-18 -47 -21 -81 -6 -81 10 0 13 12 11 45 -1 11 7 30 18 41 19 21 19 21 -15 59
-25 28 -37 35 -46 27 -7 -6 -16 -10 -20 -9 -14 4 -48 -54 -64 -109 -23 -86 -9
-132 64 -204 l55 -54 -49 -13 c-27 -7 -75 -13 -106 -13 -52 0 -58 -2 -58 -21
0 -47 50 -87 130 -104 19 -4 62 -20 95 -36 40 -19 75 -29 107 -29 52 0 132
-30 141 -54 8 -20 65 -49 87 -43 9 2 17 -1 17 -9 0 -24 34 -102 51 -116 9 -9
29 -18 45 -22 35 -8 70 27 95 96 13 39 21 48 40 48 14 0 39 15 59 35 19 19 37
35 39 35 3 0 21 7 42 16 20 8 62 17 93 18 38 1 65 9 85 23 17 12 43 25 60 28
77 18 125 39 148 65 42 51 31 64 -60 70 -43 3 -90 12 -103 19 l-24 13 40 37
c63 58 77 85 77 155 -1 64 -26 139 -58 165 -15 12 -16 12 -10 -5 6 -16 3 -15
-19 5 l-27 24 -25 -27 c-14 -15 -25 -34 -25 -42 0 -23 -14 -16 -38 21 -12 19
-28 35 -35 35 -7 0 -18 9 -25 21 -7 11 -18 18 -25 16 -7 -2 -20 0 -29 5 -11 5
-18 5 -18 -1 0 -11 30 -25 47 -22 7 1 17 -8 23 -19 6 -11 19 -20 30 -20 27 0
47 -63 30 -96 -16 -29 -43 -39 -69 -25 -34 19 -160 41 -266 48 -112 6 -230 -7
-330 -38 -35 -10 -70 -17 -78 -13 -26 10 -37 56 -21 93 12 28 16 31 33 21 12
-6 18 -16 15 -25 -4 -8 -4 -21 -1 -29 5 -12 16 -11 68 5 122 38 435 34 551 -7
33 -11 43 -12 50 -2 11 18 10 28 -2 28 -5 0 -10 -4 -10 -8 0 -5 -20 -4 -45 2
-25 6 -45 16 -45 23 0 7 -4 13 -10 13 -5 0 -11 10 -11 23 -1 17 -2 18 -6 4 -3
-10 1 -24 7 -32 10 -13 7 -15 -19 -15 -35 0 -71 30 -71 58 0 20 -36 59 -45 50
-3 -3 1 -11 10 -18 8 -7 15 -22 15 -34 0 -12 5 -27 12 -34 9 -9 9 -12 0 -12
-7 0 -12 5 -12 10 0 14 -28 12 -33 -2 -2 -8 -8 -9 -13 -4 -5 5 -4 11 4 13 18
7 14 48 -8 74 -10 13 -19 19 -20 12z m482 -109 c68 -89 72 -172 14 -230 -40
-40 -75 -50 -112 -32 -36 17 -74 73 -74 109 0 50 64 76 102 42 17 -15 18 -15
18 10 0 15 -8 42 -17 62 -16 33 -16 36 3 54 27 27 35 25 66 -15z m-712 6 c0
-5 -4 -10 -10 -10 -5 0 -10 5 -10 10 0 6 5 10 10 10 6 0 10 -4 10 -10z m619
-57 c1 10 6 15 11 12 6 -4 8 -10 5 -15 -3 -5 -1 -11 5 -15 5 -3 10 -11 10 -16
0 -5 -11 -2 -25 7 -14 9 -25 24 -24 33 0 12 2 11 9 -4 8 -18 9 -18 9 -2z
m-274 -28 c55 -8 117 -19 138 -25 34 -10 37 -14 37 -48 0 -20 9 -55 20 -77 11
-22 18 -32 15 -22 -6 23 0 22 30 -9 21 -21 33 -25 66 -22 32 3 37 1 25 -8 -9
-6 -16 -16 -16 -23 0 -17 -24 -13 -48 9 -76 71 -445 96 -705 48 -32 -6 -60 -8
-63 -5 -3 3 1 16 10 29 21 33 32 108 16 108 -19 0 -3 13 18 15 9 1 42 7 72 13
125 27 148 30 215 31 39 0 115 -6 170 -14z m-499 -140 c-10 -15 -15 -32 -13
-40 3 -7 0 -18 -6 -25 -9 -10 -8 -11 8 -7 11 3 38 8 60 12 22 4 44 10 50 13
14 9 65 12 270 14 156 1 192 -1 270 -21 50 -12 106 -33 125 -46 50 -33 126
-57 192 -58 50 -1 55 -3 47 -19 -15 -27 -52 -48 -114 -64 l-57 -15 -66 40
c-37 22 -94 67 -126 100 -33 33 -63 58 -68 55 -8 -5 -7 -7 43 -67 32 -38 138
-117 157 -117 5 0 15 -6 21 -14 9 -11 4 -17 -29 -30 -22 -9 -51 -16 -64 -16
-33 0 -81 36 -139 103 l-50 57 21 30 c24 31 27 40 14 40 -4 0 -16 -16 -27 -36
-16 -30 -23 -34 -44 -29 -20 4 -22 3 -11 -5 13 -9 12 -11 -6 -9 -3 0 -13 -9
-23 -20 -12 -13 -25 -18 -39 -14 -13 3 -22 1 -22 -6 0 -5 6 -8 13 -6 7 3 21
-10 32 -31 10 -20 41 -55 67 -79 26 -24 48 -48 48 -54 0 -17 -47 -43 -71 -39
-18 2 -24 -4 -34 -37 -26 -87 -56 -123 -94 -110 -15 5 -49 66 -71 127 -6 18
-14 26 -24 22 -15 -6 -76 21 -76 35 0 4 18 22 41 40 22 18 54 55 71 83 19 30
36 47 44 44 7 -3 16 -2 18 3 3 4 -10 8 -29 8 -26 0 -35 -5 -39 -21 -3 -12 -29
-44 -58 -73 -51 -50 -55 -52 -95 -46 -24 3 -43 9 -43 13 0 5 27 36 60 69 33
34 60 66 60 71 0 13 37 13 45 0 8 -12 25 -13 25 -2 0 5 -15 17 -34 27 -19 11
-33 22 -30 26 2 4 -3 9 -11 13 -8 3 -15 12 -15 21 0 8 -4 15 -10 15 -14 0 -12
-13 5 -36 24 -32 18 -47 -55 -119 -68 -68 -72 -70 -119 -69 -26 0 -58 7 -70
16 l-23 16 29 18 c75 46 135 93 176 141 13 15 15 26 8 44 -7 16 -10 18 -10 7
-2 -35 -103 -128 -189 -172 -18 -9 -30 -21 -28 -25 3 -5 -28 1 -69 13 -66 19
-125 53 -125 73 0 5 20 9 45 10 86 3 234 61 219 85 -4 7 -9 6 -14 -1 -3 -7
-14 -9 -24 -5 -15 6 -15 8 3 20 11 8 25 12 33 11 7 -2 10 -2 6 0 -3 2 5 22 20
43 14 22 28 38 30 35 3 -2 -3 -16 -12 -30z m-94 -79 c18 -13 14 -26 -8 -26 -6
0 -14 9 -17 20 -6 23 1 25 25 6z m656 -157 c37 -39 69 -75 70 -80 2 -5 -9 -9
-25 -9 -15 0 -34 -4 -42 -9 -11 -7 -28 5 -67 44 -28 29 -57 62 -63 73 -10 18
-8 23 16 36 16 8 31 15 36 16 4 0 37 -32 75 -71z"/>
<path d="M3883 1314 c-8 -21 13 -42 28 -27 13 13 5 43 -11 43 -6 0 -13 -7 -17
-16z"/>
<path d="M3980 1320 c-13 -8 -13 -11 2 -26 16 -17 18 -17 24 0 9 23 -7 38 -26
26z"/>
<path d="M3785 1300 c-4 -7 -3 -16 3 -22 14 -14 45 -2 40 15 -6 16 -34 21 -43
7z"/>
<path d="M4072 1293 c2 -10 10 -18 18 -18 8 0 16 8 18 18 2 12 -3 17 -18 17
-15 0 -20 -5 -18 -17z"/>
<path d="M3691 1287 c-14 -17 3 -41 23 -34 9 4 16 13 16 21 0 19 -26 28 -39
13z"/>
<path d="M4167 1283 c-3 -5 -2 -15 3 -22 10 -17 43 -6 38 12 -6 15 -34 22 -41
10z"/>
<path d="M3830 1181 c0 -5 7 -17 16 -26 55 -55 151 -59 191 -8 25 30 29 43 13
43 -5 0 -10 -7 -10 -15 0 -19 -36 -42 -78 -50 -37 -6 -85 15 -105 45 -12 21
-27 26 -27 11z"/>
<path d="M3720 1160 c0 -5 5 -10 10 -10 6 0 10 5 10 10 0 6 -4 10 -10 10 -5 0
-10 -4 -10 -10z"/>
<path d="M3948 1020 c-4 -8 -9 -88 -10 -177 -2 -132 -1 -160 10 -150 9 10 12
55 10 178 -2 90 -6 157 -10 149z"/>
<path d="M3940 1540 c0 -6 4 -9 9 -6 5 4 12 1 14 -4 3 -6 4 -5 3 2 -3 15 -26
23 -26 8z"/>
<path d="M4083 1536 c9 -7 17 -25 17 -40 0 -14 5 -26 11 -26 7 0 9 10 4 27 -8
33 -23 53 -39 53 -6 0 -3 -7 7 -14z"/>
<path d="M4170 1542 c0 -7 4 -20 9 -30 6 -9 13 -30 16 -46 5 -21 10 -27 25
-23 10 3 21 0 23 -6 4 -14 37 -1 37 14 0 8 -4 8 -15 -1 -12 -10 -16 -10 -19 1
-13 40 -14 43 -15 21 -1 -33 -24 -22 -32 14 -6 34 -28 76 -29 56z"/>
<path d="M3675 1530 c-3 -5 -1 -10 4 -10 6 0 11 5 11 10 0 6 -2 10 -4 10 -3 0
-8 -4 -11 -10z"/>
<path d="M3710 1530 c0 -5 5 -10 10 -10 6 0 10 5 10 10 0 6 -4 10 -10 10 -5 0
-10 -4 -10 -10z"/>
<path d="M4130 1525 c7 -9 15 -13 17 -11 7 7 -7 26 -19 26 -6 0 -6 -6 2 -15z"/>
<path d="M3922 1500 c0 -14 2 -19 5 -12 2 6 2 18 0 25 -3 6 -5 1 -5 -13z"/>
<path d="M3691 1488 c-1 -36 -19 -45 -30 -16 -6 13 -10 18 -10 11 -2 -21 11
-43 25 -43 15 0 29 42 21 62 -3 7 -6 1 -6 -14z"/>
<path d="M2132 1383 c2 -4 -9 -24 -24 -44 -29 -37 -58 -99 -58 -121 0 -7 15
14 33 47 18 33 41 72 50 87 12 17 15 28 7 33 -6 3 -9 3 -8 -2z"/>
<path d="M2200 1376 c0 -2 8 -10 18 -17 15 -13 16 -12 3 4 -13 16 -21 21 -21
13z"/>
<path d="M5750 1378 c0 -3 14 -22 30 -43 17 -21 30 -44 30 -51 0 -8 4 -14 9
-14 5 0 11 -10 14 -22 4 -12 9 -19 13 -16 10 11 -33 91 -66 123 -16 16 -30 26
-30 23z"/>
<path d="M2130 460 c19 -11 40 -19 45 -19 6 0 -6 8 -25 19 -19 11 -39 19 -45
19 -5 0 6 -8 25 -19z"/>
</g>
</svg>
